<?xml version="1.0" encoding="UTF-8" standalone="no"?>
<!-- Created with Inkscape (http://www.inkscape.org/) -->

<svg
   xmlns:dc="http://purl.org/dc/elements/1.1/"
   xmlns:cc="http://creativecommons.org/ns#"
   xmlns:rdf="http://www.w3.org/1999/02/22-rdf-syntax-ns#"
   xmlns:svg="http://www.w3.org/2000/svg"
   xmlns="http://www.w3.org/2000/svg"
   xmlns:sodipodi="http://sodipodi.sourceforge.net/DTD/sodipodi-0.dtd"
   xmlns:inkscape="http://www.inkscape.org/namespaces/inkscape"
   width="744.09448819"
   height="1052.3622047"
   id="svg2"
   version="1.1"
   inkscape:version="0.48.3.1 r9886"
   sodipodi:docname="Extract.svg"
   inkscape:export-filename="/home/dataflow/static/img/TAS/extract.png"
   inkscape:export-xdpi="13.840069"
   inkscape:export-ydpi="13.840069">
  <defs
     id="defs4" />
  <sodipodi:namedview
     id="base"
     pagecolor="#ffffff"
     bordercolor="#666666"
     borderopacity="1.0"
     inkscape:pageopacity="0.0"
     inkscape:pageshadow="2"
     inkscape:zoom="0.70710678"
     inkscape:cx="294.22015"
     inkscape:cy="577.23261"
     inkscape:document-units="px"
     inkscape:current-layer="layer1"
     showgrid="false"
     inkscape:snap-nodes="false"
     inkscape:snap-grids="true"
     inkscape:snap-bbox="false"
     inkscape:window-width="700"
     inkscape:window-height="680"
     inkscape:window-x="183"
     inkscape:window-y="85"
     inkscape:window-maximized="0" />
  <metadata
     id="metadata7">
    <rdf:RDF>
      <cc:Work
         rdf:about="">
        <dc:format>image/svg+xml</dc:format>
        <dc:type
           rdf:resource="http://purl.org/dc/dcmitype/StillImage" />
        <dc:title></dc:title>
      </cc:Work>
    </rdf:RDF>
  </metadata>
  <g
     inkscape:label="Layer 1"
     inkscape:groupmode="layer"
     id="layer1">
    <rect
       style="fill:#00ffff"
       id="rect3166"
       width="416.18286"
       height="416.18286"
       x="169.70566"
       y="224.03709"
       ry="58.09742" />
    <flowRoot
       xml:space="preserve"
       id="flowRoot2987-7"
       style="font-size:40px;font-style:normal;font-weight:normal;text-align:center;line-height:125%;letter-spacing:0px;word-spacing:0px;text-anchor:middle;fill:#000000;fill-opacity:1;stroke:none;font-family:Sans"
       transform="matrix(1.0059505,0,0,0.96229963,130.99135,-67.568881)"><flowRegion
         id="flowRegion2989-8"><rect
           id="rect2991-5"
           width="335.4072"
           height="84.400803"
           x="82.958397"
           y="344.42053"
           style="text-align:center;text-anchor:middle"
           ry="0" /></flowRegion><flowPara
         style="font-size:56.91733551px;text-align:center;text-anchor:middle"
         id="flowPara3109">Extract</flowPara></flowRoot>    <flowRoot
       xml:space="preserve"
       id="flowRoot3111"
       style="fill:black;stroke:none;stroke-opacity:1;stroke-width:1px;stroke-linejoin:miter;stroke-linecap:butt;fill-opacity:1;font-family:Sans;font-style:normal;font-weight:normal;font-size:18px;line-height:125%;letter-spacing:0px;word-spacing:0px"><flowRegion
         id="flowRegion3113"><rect
           id="rect3115"
           width="228.29448"
           height="234.35539"
           x="185.86807"
           y="383.6412"
           style="font-size:18px" /></flowRegion><flowPara
         id="flowPara3117" /></flowRoot>    <flowRoot
       xml:space="preserve"
       id="flowRoot3119"
       style="font-size:40px;font-style:normal;font-weight:normal;line-height:125%;letter-spacing:0px;word-spacing:0px;fill:#000000;fill-opacity:1;stroke:none;font-family:Sans"
       transform="translate(128.18376,-12.748738)"><flowRegion
         id="flowRegion3121"><rect
           id="rect3123"
           width="154.5183"
           height="217.60663"
           x="145.91673"
           y="378.65509" /></flowRegion><flowPara
         id="flowPara3133"
         style="font-size:13px;font-weight:bold;-inkscape-font-specification:Sans Bold">TripleAxis run 1</flowPara><flowPara
         id="flowPara3127"
         style="font-size:13px;font-weight:bold;-inkscape-font-specification:Sans Bold">TripleAxis run 2</flowPara><flowPara
         id="flowPara3129"
         style="font-size:13px;font-weight:bold;-inkscape-font-specification:Sans Bold">TripleAxis run 3</flowPara><flowPara
         id="flowPara3131"
         style="font-size:13px;font-weight:bold;-inkscape-font-specification:Sans Bold">TripleAxis run 4</flowPara><flowPara
         style="font-size:13px;font-weight:bold;-inkscape-font-specification:Sans Bold"
         id="flowPara3145">TripleAxis run 5</flowPara><flowPara
         style="font-size:13px;font-weight:bold;-inkscape-font-specification:Sans Bold"
         id="flowPara3147"> </flowPara><flowPara
         style="font-size:13px;font-weight:bold;-inkscape-font-specification:Sans Bold"
         id="flowPara3149"> </flowPara><flowPara
         style="font-size:13px;font-weight:bold;-inkscape-font-specification:Sans Bold"
         id="flowPara3161" /><flowPara
         style="font-size:13px;font-weight:bold;-inkscape-font-specification:Sans Bold"
         id="flowPara3151">TripleAxis run (n-4)</flowPara><flowPara
         style="font-size:13px;font-weight:bold;-inkscape-font-specification:Sans Bold"
         id="flowPara3153">TripleAxis run (n-3)</flowPara><flowPara
         style="font-size:13px;font-weight:bold;-inkscape-font-specification:Sans Bold"
         id="flowPara3155">TripleAxis run (n-2)</flowPara><flowPara
         style="font-size:13px;font-weight:bold;-inkscape-font-specification:Sans Bold"
         id="flowPara3157">TripleAxis run (n-1)</flowPara><flowPara
         style="font-size:13px;font-weight:bold;-inkscape-font-specification:Sans Bold"
         id="flowPara3165">TripleAxis run n</flowPara></flowRoot>    <path
       sodipodi:type="arc"
       style="fill:#000000;fill-opacity:1"
       id="path3167-7"
       sodipodi:cx="353"
       sodipodi:cy="495.86218"
       sodipodi:rx="5"
       sodipodi:ry="4"
       d="m 358,495.86218 a 5,4 0 1 1 -10,0 5,4 0 1 1 10,0 z"
       transform="matrix(1,0,0,1.1875,-16.316234,-116.2729)" />
    <path
       sodipodi:type="arc"
       style="fill:#000000;fill-opacity:1"
       id="path3167-7-4"
       sodipodi:cx="353"
       sodipodi:cy="495.86218"
       sodipodi:rx="5"
       sodipodi:ry="4"
       d="m 358,495.86218 a 5,4 0 1 1 -10,0 5,4 0 1 1 10,0 z"
       transform="matrix(1,0,0,1.1875,-16.316234,-131.5229)" />
    <path
       sodipodi:type="arc"
       style="fill:#000000;fill-opacity:1"
       id="path3167-7-7"
       sodipodi:cx="353"
       sodipodi:cy="495.86218"
       sodipodi:rx="5"
       sodipodi:ry="4"
       d="m 358,495.86218 a 5,4 0 1 1 -10,0 5,4 0 1 1 10,0 z"
       transform="matrix(1,0,0,1.1875,-16.316234,-100.0229)" />
    <path
       style="fill:#000000;fill-opacity:1"
       id="path3282"
       d="m 411.26662,355.12685 c 1.8213,0.19647 3.59499,0.007 5.39267,-0.26399 3.48954,-0.49855 7.00297,-0.38754 10.50595,-0.15215 3.53156,0.60338 7.13679,0.8026 10.56712,1.874 2.55412,0.74607 4.93119,1.89069 7.10165,3.41922 2.29547,1.72285 4.27794,3.80348 6.2935,5.83347 2.6391,2.42827 4.70761,5.34571 6.90387,8.15756 1.65796,2.08366 3.04236,4.28161 3.8288,6.83133 0.57698,2.21388 0.54189,4.51034 0.52162,6.77936 -0.017,2.66917 -0.009,5.33858 -0.0391,8.00763 0.008,2.83272 -0.0171,5.66526 -0.0388,8.49788 0.14956,2.93441 -0.073,5.83687 -0.40025,8.74857 -0.32829,2.60316 -0.44405,5.22212 -0.49652,7.84301 0.12848,2.31477 -0.31137,4.58105 -0.60905,6.86329 -0.35692,2.28614 0.006,4.59353 0.51134,6.82758 0.57933,2.38143 0.86268,4.81824 1.4337,7.20066 0.43613,2.37105 1.84571,4.28247 3.18129,6.22001 1.31827,1.71995 2.77736,3.10474 4.65947,4.18152 2.4368,1.37607 4.9926,2.50487 7.39965,3.93484 2.57913,1.34197 5.18132,2.62874 7.95783,3.5071 2.46482,0.50317 4.94805,0.92412 7.43278,1.34087 1.68995,0.26289 3.28383,0.56932 4.86082,-0.19899 0,0 -11.6007,8.92661 -11.6007,8.92661 l 0,0 c -1.73395,0.20355 -3.44805,-0.0898 -5.15719,-0.40553 -2.50425,-0.48755 -5.05879,-0.79277 -7.49212,-1.57175 -2.78445,-1.04949 -5.45885,-2.34153 -8.07353,-3.76101 -2.46133,-1.38806 -5.06132,-2.50338 -7.52531,-3.88988 -1.97744,-1.26775 -3.63358,-2.76069 -4.9821,-4.70048 -1.43713,-2.08174 -2.89316,-4.1655 -3.34678,-6.71336 -0.64572,-2.37337 -1.07203,-4.77902 -1.52413,-7.19359 -0.55526,-2.38726 -1.04976,-4.81312 -0.7498,-7.2782 0.27511,-2.24363 0.73418,-4.4669 0.67465,-6.73508 0.0883,-2.67274 0.20906,-5.35008 0.53143,-8.00606 0.34964,-2.86789 0.6421,-5.71797 0.50577,-8.61412 -0.0205,-2.82398 -0.044,-5.64798 -0.0208,-8.47199 -0.0138,-2.66047 0.0269,-5.32101 0.0138,-7.98154 -0.0419,-2.13293 -0.0197,-4.28634 -0.41735,-6.39064 -0.61418,-2.4189 -1.87295,-4.47707 -3.35816,-6.47077 -2.10513,-2.80373 -4.08653,-5.71697 -6.80152,-7.98734 -2.00452,-1.93748 -4.02095,-3.88989 -6.28506,-5.52562 -2.09618,-1.35574 -4.37254,-2.38453 -6.76497,-3.10703 -3.32781,-0.90949 -6.79172,-1.29228 -10.20613,-1.72986 -3.55697,-0.17151 -7.09868,-0.0335 -10.61482,0.57953 -1.92632,0.24541 -3.85158,0.25226 -5.79007,0.30548 0,0 12.01656,-8.73054 12.01656,-8.73054 z"
       inkscape:connector-curvature="0" />
    <path
       style="fill:#000000;fill-opacity:1"
       id="path3282-4"
       d="m 411.4236,595.29005 c 1.8213,-0.23403 3.59499,-0.008 5.39267,0.31447 3.48954,0.59387 7.00297,0.46164 10.50595,0.18124 3.53156,-0.71875 7.13679,-0.95606 10.56712,-2.23231 2.55412,-0.88872 4.93119,-2.25219 7.10165,-4.07298 2.29547,-2.05226 4.27794,-4.53071 6.2935,-6.94883 2.6391,-2.89256 4.70761,-6.36782 6.90387,-9.71729 1.65796,-2.48206 3.04236,-5.10026 3.8288,-8.13749 0.57698,-2.63718 0.54189,-5.37272 0.52162,-8.07558 -0.017,-3.17952 -0.009,-6.35932 -0.0391,-9.5387 0.008,-3.37433 -0.0171,-6.74846 -0.0388,-10.12268 0.14956,-3.49547 -0.073,-6.95288 -0.40025,-10.4213 -0.32829,-3.10089 -0.44405,-6.2206 -0.49652,-9.3426 0.12848,-2.75736 -0.31137,-5.45695 -0.60905,-8.17556 -0.35692,-2.72325 0.006,-5.47182 0.51134,-8.13302 0.57933,-2.83676 0.86268,-5.73949 1.4337,-8.57743 0.43613,-2.8244 1.84571,-5.10128 3.18129,-7.40928 1.31827,-2.04881 2.77736,-3.69837 4.65947,-4.98103 2.4368,-1.63918 4.9926,-2.9838 7.39965,-4.68719 2.57913,-1.59855 5.18132,-3.13135 7.95783,-4.17766 2.46482,-0.59937 4.94805,-1.10081 7.43278,-1.59724 1.68995,-0.31316 3.28383,-0.67818 4.86082,0.23704 0,0 -11.6007,-10.63339 -11.6007,-10.63339 l 0,0 c -1.73395,-0.24247 -3.44805,0.10697 -5.15719,0.48307 -2.50425,0.58077 -5.05879,0.94435 -7.49212,1.87227 -2.78445,1.25015 -5.45885,2.78923 -8.07353,4.48012 -2.46133,1.65345 -5.06132,2.98202 -7.52531,4.63362 -1.97744,1.51015 -3.63358,3.28854 -4.9821,5.59922 -1.43713,2.47977 -2.89316,4.96195 -3.34678,7.99696 -0.64572,2.82716 -1.07203,5.69277 -1.52413,8.56901 -0.55526,2.84371 -1.04976,5.73339 -0.7498,8.6698 0.27511,2.67261 0.73418,5.32097 0.67465,8.02283 0.0883,3.18377 0.20906,6.37302 0.53143,9.53683 0.34964,3.41623 0.6421,6.81125 0.50577,10.26114 -0.0205,3.36393 -0.044,6.72788 -0.0208,10.09185 -0.0138,3.16915 0.0269,6.33839 0.0138,9.50761 -0.0419,2.54075 -0.0197,5.10589 -0.41735,7.61254 -0.61418,2.88139 -1.87295,5.33309 -3.35816,7.70799 -2.10513,3.3398 -4.08653,6.81005 -6.80152,9.51452 -2.00452,2.30793 -4.02095,4.63364 -6.28506,6.58212 -2.09618,1.61496 -4.37254,2.84046 -6.76497,3.7011 -3.32781,1.08339 -6.79172,1.53937 -10.20613,2.06061 -3.55697,0.2043 -7.09868,0.0399 -10.61482,-0.69033 -1.92632,-0.29234 -3.85158,-0.3005 -5.79007,-0.36389 0,0 12.01656,10.39982 12.01656,10.39982 z"
       inkscape:connector-curvature="0" />
    <rect
       style="fill:#000000;fill-opacity:1"
       id="rect3302"
       width="10"
       height="8"
       x="-500.39951"
       y="460.49213"
       ry="4"
       transform="scale(-1,1)" />
  </g>
  <g
     inkscape:groupmode="layer"
     id="layer3"
     inkscape:label="Layer1" />
  <g
     inkscape:groupmode="layer"
     id="layer2"
     inkscape:label="Layer" />
</svg>
