<?xml version="1.0" encoding="UTF-8" standalone="no"?>
<!-- Created with Inkscape (http://www.inkscape.org/) -->

<svg
   xmlns:dc="http://purl.org/dc/elements/1.1/"
   xmlns:cc="http://creativecommons.org/ns#"
   xmlns:rdf="http://www.w3.org/1999/02/22-rdf-syntax-ns#"
   xmlns:svg="http://www.w3.org/2000/svg"
   xmlns="http://www.w3.org/2000/svg"
   xmlns:sodipodi="http://sodipodi.sourceforge.net/DTD/sodipodi-0.dtd"
   xmlns:inkscape="http://www.inkscape.org/namespaces/inkscape"
   width="744.09448819"
   height="1052.3622047"
   id="svg2"
   version="1.1"
   inkscape:version="0.48.0 r9654"
   sodipodi:docname="Harmonic Monitor Correction.svg"
   inkscape:export-filename="/home/alex/Desktop/dataflow/static/img/TAS/harmonic_monitor_correction.png"
   inkscape:export-xdpi="13.840069"
   inkscape:export-ydpi="13.840069">
  <defs
     id="defs4" />
  <sodipodi:namedview
     id="base"
     pagecolor="#ffffff"
     bordercolor="#666666"
     borderopacity="1.0"
     inkscape:pageopacity="0.0"
     inkscape:pageshadow="2"
     inkscape:zoom="0.98994949"
     inkscape:cx="350.72564"
     inkscape:cy="616.52323"
     inkscape:document-units="px"
     inkscape:current-layer="layer1"
     showgrid="false"
     inkscape:snap-nodes="false"
     inkscape:snap-grids="true"
     inkscape:snap-bbox="false"
     inkscape:window-width="672"
     inkscape:window-height="666"
     inkscape:window-x="347"
     inkscape:window-y="157"
     inkscape:window-maximized="0" />
  <metadata
     id="metadata7">
    <rdf:RDF>
      <cc:Work
         rdf:about="">
        <dc:format>image/svg+xml</dc:format>
        <dc:type
           rdf:resource="http://purl.org/dc/dcmitype/StillImage" />
        <dc:title></dc:title>
      </cc:Work>
    </rdf:RDF>
  </metadata>
  <g
     inkscape:label="Layer 1"
     inkscape:groupmode="layer"
     id="layer1">
    <rect
       style="fill:#00ffff"
       id="rect3166"
       width="416.18286"
       height="416.18286"
       x="169.70566"
       y="224.03709"
       ry="58.09742" />
    <flowRoot
       xml:space="preserve"
       id="flowRoot2987-7"
       style="font-size:40px;font-style:normal;font-weight:normal;text-align:center;line-height:125%;letter-spacing:0px;word-spacing:0px;text-anchor:middle;fill:#000000;fill-opacity:1;stroke:none;font-family:Sans"
       transform="matrix(1.0059505,0,0,0.96229963,-34.511226,-99.04605)"><flowRegion
         id="flowRegion2989-8"><rect
           id="rect2991-5"
           width="423.57391"
           height="214.35706"
           x="202.85715"
           y="343.79074"
           style="text-align:center;text-anchor:middle" /></flowRegion><flowPara
         id="flowPara2993-8"
         style="font-size:56.91733551px">Harmonic Monitor Correction</flowPara></flowRoot>    <rect
       style="fill:#ff00ff"
       id="rect3561-73"
       width="7.8720198"
       height="172.27022"
       x="-496.05185"
       y="-704.55066"
       ry="0"
       transform="matrix(-0.9985971,0.05295129,0.41288471,-0.9107833,0,0)" />
    <rect
       style="fill:#ff00ff"
       id="rect3561-8-6"
       width="7.8720198"
       height="172.27022"
       x="-513.05121"
       y="-705.53906"
       ry="0"
       transform="matrix(-0.9985971,0.05295129,0.41288471,-0.9107833,0,0)" />
    <rect
       style="fill:#ff00ff"
       id="rect3561-4-9"
       width="7.8720198"
       height="172.27022"
       x="-528.41412"
       y="-706.43225"
       ry="0"
       transform="matrix(-0.9985971,0.05295129,0.41288471,-0.9107833,0,0)" />
    <rect
       style="fill:#ff00ff"
       id="rect3561-3-1"
       width="7.8720198"
       height="172.27022"
       x="-546.198"
       y="-707.46625"
       ry="0"
       transform="matrix(-0.9985971,0.05295129,0.41288471,-0.9107833,0,0)" />
    <rect
       style="fill:#ff00ff"
       id="rect3561-7-0"
       width="7.8720198"
       height="172.27022"
       x="-562.80261"
       y="-708.43152"
       ry="0"
       transform="matrix(-0.9985971,0.05295129,0.41288471,-0.9107833,0,0)" />
    <rect
       style="fill:#ff00ff"
       id="rect3561-73-9"
       width="6.9033585"
       height="162.84422"
       x="-475.86252"
       y="-618.04468"
       ry="0"
       transform="matrix(-0.99998899,0.00469288,0.00108678,-0.99999941,0,0)" />
    <rect
       style="fill:#ff00ff"
       id="rect3561-73-9-8"
       width="6.9033585"
       height="162.84422"
       x="-493.03537"
       y="-618.12531"
       ry="0"
       transform="matrix(-0.99998899,0.00469288,0.00108678,-0.99999941,0,0)" />
    <rect
       style="fill:#ff00ff"
       id="rect3561-73-9-0"
       width="6.9033585"
       height="162.84422"
       x="-511.21844"
       y="-618.21063"
       ry="0"
       transform="matrix(-0.99998899,0.00469288,0.00108678,-0.99999941,0,0)" />
    <rect
       style="fill:#ff00ff"
       id="rect3561-73-9-6"
       width="6.9033585"
       height="162.84422"
       x="-530.21167"
       y="-618.29968"
       ry="0"
       transform="matrix(-0.99998899,0.00469288,0.00108678,-0.99999941,0,0)" />
    <rect
       style="fill:#ff00ff"
       id="rect3561-73-9-4"
       width="6.9033585"
       height="162.84422"
       x="-547.58441"
       y="-618.38129"
       ry="0"
       transform="matrix(-0.99998899,0.00469288,0.00108678,-0.99999941,0,0)" />
    <rect
       style="fill:#2b0000"
       id="rect3403"
       width="70.754967"
       height="9.1199064"
       x="343.31241"
       y="532.37927"
       ry="0"
       transform="matrix(0.99999257,-0.00385428,0.01956603,0.99980857,0,0)" />
    <rect
       style="fill:#2b0000"
       id="rect3403-8"
       width="38.73587"
       height="10.76053"
       x="370.83981"
       y="725.83679"
       ry="0"
       transform="matrix(0.88452631,-0.4664903,0.08611906,0.99628485,0,0)" />
    <rect
       style="fill:#2b0000"
       id="rect3403-8-9"
       width="42.332241"
       height="10.283924"
       x="563.7829"
       y="272.51019"
       ry="0"
       transform="matrix(0.88542925,0.46477419,-0.41261111,0.91090728,0,0)"
       inkscape:transform-center-x="48.191923"
       inkscape:transform-center-y="130.52209" />
  </g>
  <g
     inkscape:groupmode="layer"
     id="layer3"
     inkscape:label="Layer1" />
  <g
     inkscape:groupmode="layer"
     id="layer2"
     inkscape:label="Layer" />
</svg>
